<?xml version="1.0" encoding="UTF-8" standalone="no"?>
<svg
   version="1.1"
   width="1024"
   height="1024"
   id="svg25"
   sodipodi:docname="Tarheel Trader.svg"
   inkscape:version="1.3.2 (091e20e, 2023-11-25)"
   xmlns:inkscape="http://www.inkscape.org/namespaces/inkscape"
   xmlns:sodipodi="http://sodipodi.sourceforge.net/DTD/sodipodi-0.dtd"
   xmlns="http://www.w3.org/2000/svg"
   xmlns:svg="http://www.w3.org/2000/svg">
  <defs
     id="defs25" />
  <sodipodi:namedview
     id="namedview25"
     pagecolor="#ffffff"
     bordercolor="#000000"
     borderopacity="0.25"
     inkscape:showpageshadow="2"
     inkscape:pageopacity="0.0"
     inkscape:pagecheckerboard="0"
     inkscape:deskcolor="#d1d1d1"
     inkscape:zoom="0.2326063"
     inkscape:cx="148.31928"
     inkscape:cy="520.19226"
     inkscape:window-width="1312"
     inkscape:window-height="449"
     inkscape:window-x="0"
     inkscape:window-y="39"
     inkscape:window-maximized="0"
     inkscape:current-layer="svg25" />
  <path
     d="M0 0 C2.8443124 2.51612251 4.80742626 5.18730905 6.8125 8.375 C13.126963 17.86224737 20.97330019 21.5879854 32 24 C43.11501756 25.8843005 54.5073466 26.25929679 65.75830078 26.57128906 C79.10898108 27.03011157 91.08554694 30.95107808 100.609375 40.63671875 C105.45169082 46.9072457 104.8753871 54.45575478 104 62 C102.54729682 67.44411095 100.12487856 72.31268216 97 77 C100.54518884 75.60240095 100.54518884 75.60240095 104 74 C137.98301147 70.27975453 181.51122145 94.75461143 207.05859375 115.1796875 C212.86261612 120.09665256 212.86261612 120.09665256 219.953125 122.234375 C223.06692475 121.7181836 225.97263328 120.88952257 229 120 C244.58300665 117.32959322 261.86791988 115.59413494 277 121 C277.99128906 121.35191406 278.98257812 121.70382812 280.00390625 122.06640625 C296.53842638 128.46482209 308.19114728 140.02941164 320.49853516 152.38500977 C321.50470828 153.39146582 322.51110334 154.39770003 323.5177002 155.4037323 C326.21761132 158.10335957 328.91445445 160.80603207 331.61070681 163.50931287 C334.44091707 166.34582599 337.27400915 169.17945798 340.10678101 172.01341248 C345.45627324 177.36599776 350.80321395 182.72112423 356.1492151 188.07719606 C362.24165083 194.18085626 368.33696755 200.28163598 374.43251348 206.38218987 C386.95818995 218.91828479 399.48029098 231.45794556 412 244 C407.63493036 248.37379176 403.18715491 252.64049626 398.6875 256.875 C397.96626953 257.55691406 397.24503906 258.23882812 396.50195312 258.94140625 C392.34540058 262.85564856 388.12728946 266.67791525 383.81469727 270.41943359 C380.52652193 273.28337105 377.3211491 276.23919819 374.1015625 279.1796875 C371.71943167 281.24302015 370.46642605 281.91115694 367.375 282.5 C358.54917893 281.19247095 350.99075902 270.10945116 344.84431839 263.91948318 C343.00568109 262.0679469 341.16381907 260.21967174 339.32113647 258.37216187 C335.41958512 254.45926385 331.52201855 250.54241174 327.625 246.625 C323.08596425 242.06235093 318.54530336 237.50134348 314.00043869 232.94449997 C312.18473294 231.12230679 310.37205893 229.29713381 308.55947876 227.47183228 C307.45337374 226.3620971 306.34712941 225.25250075 305.24072266 224.14306641 C304.73684021 223.63401764 304.23295776 223.12496887 303.71380615 222.60049438 C301.108103 219.96785598 301.108103 219.96785598 298 218 C298 217.34 298 216.68 298 216 C297.43796875 215.76539063 296.8759375 215.53078125 296.296875 215.2890625 C293.45364109 213.69337 291.51901873 211.71075457 289.25 209.375 C288.45078125 208.55773437 287.6515625 207.74046875 286.828125 206.8984375 C286.22484375 206.27195312 285.6215625 205.64546875 285 205 C280.42217036 206.42696311 277.96892115 208.74461964 274.6875 212.1875 C271.53937613 215.44114169 268.39081461 218.62858637 264.9375 221.5625 C260.88224845 225.0206593 257.18895696 228.79649922 253.4453125 232.5859375 C250.70876521 235.28751294 247.85020634 237.79078735 244.9296875 240.2890625 C242.15754999 242.7469496 239.59449311 245.39623604 236.99609375 248.03515625 C235.07892823 249.92230744 233.10424678 251.68685375 231.0625 253.4375 C228.07198284 256.00665271 225.26883316 258.69317256 222.5 261.5 C219.11758601 264.9288279 215.61929558 268.12048518 211.96484375 271.25390625 C209.89179676 273.09615675 207.94564198 275.02401662 206 277 C203.48044611 279.55869259 200.91881218 281.98170611 198.1875 284.3125 C194.79804439 287.22250413 191.63547854 290.32159176 188.5 293.5 C184.78857957 297.26216622 180.9814158 300.82809836 176.9609375 304.2578125 C173.90770829 306.97044244 171.0859685 309.90600453 168.21875 312.8125 C165.59228878 315.40196881 162.83023542 317.78836964 160.03125 320.1875 C157.76361428 322.2109288 155.6342305 324.33653347 153.5 326.5 C150.13885518 329.9071879 146.66298797 333.07458174 143.03125 336.1875 C140.76361428 338.2109288 138.6342305 340.33653347 136.5 342.5 C133.60076159 345.42431833 130.67615482 348.29634315 127.625 351.0625 C126.99851562 351.63097656 126.37203125 352.19945312 125.7265625 352.78515625 C124 354 124 354 121 354 C119.38481395 352.18253259 117.97908478 350.40197722 116.5625 348.4375 C115.66714423 347.23044871 114.76993405 346.02477126 113.87109375 344.8203125 C113.40171387 344.18899414 112.93233398 343.55767578 112.44873047 342.90722656 C110.56757864 340.43072537 108.59664822 338.03560044 106.61987305 335.63525391 C89.48549553 314.7426747 76.94678546 292.10303639 70.25 265.875 C69.95186401 264.71339355 69.95186401 264.71339355 69.64770508 263.52832031 C66.73061286 251.49984746 65.75115957 239.39016495 65.125 227.0625 C63.53834159 200.24784968 54.33978568 177.15619425 34.7109375 158.3125 C22.29065885 147.71768017 7.61169331 142.87858508 -8.0390625 139.46557617 C-20.70646925 136.60152513 -27.59820321 130.78461488 -34.60107422 119.94970703 C-37.56747681 115.1387549 -39.72867832 110.19226079 -41.625 104.875 C-41.88466553 104.15280273 -42.14433105 103.43060547 -42.41186523 102.68652344 C-43.31006365 99.99161025 -44.00932575 97.55021914 -43.9609375 94.6953125 C-41.93177359 91.11540543 -38.21419201 90.0606726 -34.42919922 88.98852539 C-33.05639784 88.68229524 -31.68138739 88.38585399 -30.3046875 88.09765625 C-29.56329529 87.93490707 -28.82190308 87.7721579 -28.05804443 87.60447693 C-25.66552882 87.08158476 -23.27046725 86.5716826 -20.875 86.0625 C-19.23471773 85.70770349 -17.59458099 85.35223353 -15.95458984 84.99609375 C-12.74620649 84.30096601 -9.5367475 83.61119847 -6.32617188 82.92626953 C-2.75043082 82.16283151 0.82099813 81.38144705 4.390625 80.58984375 C6.05197092 80.22604875 7.71341603 79.86270616 9.375 79.5 C10.09059082 79.34023682 10.80618164 79.18047363 11.54345703 79.01586914 C15.42508239 78.1883315 19.03324019 77.85262812 23 78 C22.20335937 76.948125 22.20335937 76.948125 21.390625 75.875 C17.35259132 70.45165549 13.53852106 65.2911174 11 59 C11.41015625 56.77734375 11.41015625 56.77734375 12 55 C12.67804688 55.32613281 13.35609375 55.65226562 14.0546875 55.98828125 C27.967295 62.52065513 39.7923209 64.17704837 55.0625 64.0625 C56.21427734 64.05798828 57.36605469 64.05347656 58.55273438 64.04882812 C61.36854518 64.03714426 64.18424398 64.02076281 67 64 C67.14308594 63.23300781 67.28617187 62.46601563 67.43359375 61.67578125 C68.01124472 58.94687839 68.90330011 56.55896641 70 54 C64.57835903 52.05809968 59.13970676 50.48308917 53.54296875 49.1328125 C52.53256027 48.88818268 52.53256027 48.88818268 51.5017395 48.63861084 C48.69698685 47.96243097 45.8913616 47.29041278 43.08276367 46.63037109 C27.49832734 42.95381873 14.97453294 38.81480978 4.5625 26 C0.3829448 17.97525401 -1.29969727 9.99091811 -1 1 C-0.67 0.67 -0.34 0.34 0 0 Z "
     fill="#058A4F"
     transform="translate(180,171)"
     id="path2" />
  <path
     d="M0 0 C5.93066261 2.90481434 10.07105296 8.14210591 13 14 C15.34490357 14.94761869 17.67402778 15.80206932 20.0625 16.625 C32.6332171 21.1604011 44.35131667 26.85565129 55 35 C56.3921875 35.9590625 56.3921875 35.9590625 57.8125 36.9375 C62.52894406 41.38443297 65.50951041 46.4601388 66 53 C67.73636719 53.54140625 67.73636719 53.54140625 69.5078125 54.09375 C76.05253024 56.27788612 82.39885531 58.95166649 88.75878906 61.61572266 C90.88813889 62.5054902 93.02203347 63.38369973 95.15625 64.26171875 C96.51852102 64.83003009 97.88051073 65.39901631 99.2421875 65.96875 C99.87655731 66.22821411 100.51092712 66.48767822 101.16452026 66.75500488 C107.00223616 69.2264481 107.00223616 69.2264481 109 72 C110.45690567 81.71270444 105.79787947 92.22650206 100.4375 100.25 C97.05887529 104.06178173 93.96204342 106.02515607 89 107 C87.08438746 107.06688591 85.16664408 107.08531719 83.25 107.0625 C82.26515625 107.05347656 81.2803125 107.04445313 80.265625 107.03515625 C79.51796875 107.02355469 78.7703125 107.01195312 78 107 C78 107.66 78 108.32 78 109 C78.66 109.0825 79.32 109.165 80 109.25 C83.99039163 110.24759791 87.38549643 112.07166683 91 114 C90.68173966 117.7130373 89.68581808 120.31671877 86.88671875 122.8671875 C80.46169745 126.72486075 72.23916286 127.06739114 64.9375 127.375 C47.73068635 128.35005277 35.77422908 139.66661569 24 151 C23.09636719 151.86238281 22.19273437 152.72476563 21.26171875 153.61328125 C15.34503522 159.38273782 10.13822982 165.53739773 5 172 C4.08926964 173.09934118 3.17641445 174.19692468 2.26171875 175.29296875 C-6.31573337 185.65504945 -13.7424081 196.6848619 -21 208 C-21.74080811 209.15072998 -21.74080811 209.15072998 -22.49658203 210.32470703 C-35.44056207 230.56560432 -48.01988664 252.28176229 -53 276 C-53.17345947 276.75837158 -53.34691895 277.51674316 -53.52563477 278.2980957 C-54.03337663 281.19010766 -54.12948738 283.88103905 -54.1328125 286.81640625 C-54.13474609 288.45706055 -54.13474609 288.45706055 -54.13671875 290.13085938 C-54.13285156 291.26330078 -54.12898437 292.39574219 -54.125 293.5625 C-54.12886719 294.69880859 -54.13273438 295.83511719 -54.13671875 297.00585938 C-54.13542969 298.09833984 -54.13414062 299.19082031 -54.1328125 300.31640625 C-54.13112061 301.80829468 -54.13112061 301.80829468 -54.12939453 303.33032227 C-54.01383864 305.71448012 -53.68104123 307.72185959 -53 310 C-52.87995605 309.44352783 -52.75991211 308.88705566 -52.63623047 308.3137207 C-47.32811823 283.89290893 -40.83673594 260.55251154 -29.75 238.0625 C-29.43305176 237.41821045 -29.11610352 236.7739209 -28.78955078 236.11010742 C-26.88056133 232.36478034 -24.65968344 229.23980879 -22 226 C-22.01571045 227.1873877 -22.0314209 228.37477539 -22.04760742 229.59814453 C-24.62089758 278.70008708 -24.62089758 278.70008708 -8 323 C-6.14312001 324.40359975 -6.14312001 324.40359975 -4.125 325.1875 C-3.43019531 325.50332031 -2.73539063 325.81914063 -2.01953125 326.14453125 C-1.35308594 326.42683594 -0.68664062 326.70914062 0 327 C5.2015248 329.24379501 7.80601113 331.3968984 11 336 C11 337.32 11 338.64 11 340 C-1.65665501 340.09274162 -14.31322897 340.16378642 -26.97015476 340.20724869 C-32.84749428 340.22811 -38.72460106 340.25640159 -44.60180664 340.30175781 C-50.2752352 340.34526668 -55.94844009 340.36914806 -61.62202263 340.37950897 C-63.78494728 340.38689122 -65.9478599 340.40130706 -68.11068916 340.42292023 C-71.14380325 340.45202062 -74.17599695 340.45595315 -77.20922852 340.45410156 C-78.10043396 340.46848267 -78.9916394 340.48286377 -79.90985107 340.49768066 C-86.69802258 340.45293673 -90.82585584 338.78511041 -96.00390625 334.24169922 C-100.55674039 328.94860163 -103.85136538 323.34186969 -107 317.125 C-107.51618896 316.11920898 -108.03237793 315.11341797 -108.56420898 314.07714844 C-119.31926968 292.76603868 -125.02064769 272.14755107 -125.625 248.1875 C-125.66367187 246.91068359 -125.70234375 245.63386719 -125.7421875 244.31835938 C-125.83524861 241.21244485 -125.9186511 238.10624335 -126 235 C-128.31 239.29 -130.62 243.58 -133 248 C-140.45239016 248.02489364 -147.90475561 248.04295103 -155.35717773 248.05493164 C-157.88745547 248.05993123 -160.41773035 248.06673309 -162.94799805 248.07543945 C-166.60466213 248.08769804 -170.26128772 248.09327221 -173.91796875 248.09765625 C-175.03205612 248.10281754 -176.14614349 248.10797882 -177.29399109 248.11329651 C-184.90492058 248.11382872 -192.42056051 247.68460299 -200 247 C-200.11851018 228.93008658 -199.98277673 210.87820406 -199.5625 192.8125 C-199.54285187 191.92016663 -199.52320374 191.02783325 -199.50296021 190.10845947 C-199.39142112 185.12699198 -199.24606943 180.14853596 -199.06311035 175.16918945 C-199.00470487 173.1617127 -199.00046787 171.15285738 -199.00097656 169.14453125 C-198.87926955 163.63136168 -198.6409784 159.96874936 -194.7890625 155.8359375 C-193.42978846 154.64855609 -192.0400888 153.49527864 -190.625 152.375 C-189.15738493 151.1136867 -187.69124527 149.85065471 -186.2265625 148.5859375 C-185.1442334 147.67859863 -185.1442334 147.67859863 -184.04003906 146.75292969 C-181.19617466 144.30930278 -178.61438931 141.68803407 -176 139 C-173.14382951 136.10997861 -170.28549257 133.31590212 -167.1875 130.6875 C-163.24598451 127.33111671 -159.63862484 123.6768156 -156 120 C-148.71913458 112.64303461 -148.71913458 112.64303461 -145.0625 109.5625 C-140.97378849 106.10961404 -137.26265302 102.29922802 -133.5 98.5 C-129.17671345 94.1346888 -124.85323169 89.89386039 -120.15234375 85.93359375 C-116.32195424 82.49249972 -112.75787856 78.77630738 -109.13696289 75.11743164 C-105.56528952 71.52271832 -101.92548468 68.10867159 -98.0546875 64.8359375 C-94.69932183 61.83779707 -91.58256239 58.6021425 -88.42138672 55.40185547 C-85.11384237 52.06924605 -81.7033448 48.94784308 -78.125 45.90625 C-74.75607475 42.88412588 -71.61662649 39.63683116 -68.43725586 36.41772461 C-65.02614102 32.98056658 -61.52863328 29.71194067 -57.81640625 26.59765625 C-55.84884615 24.93925997 -55.84884615 24.93925997 -53.82543945 22.49291992 C-50.43882693 19.50487011 -48.4124732 19.12213582 -43.9765625 18.515625 C-42.61182633 18.30044628 -41.2472473 18.08426896 -39.8828125 17.8671875 C-37.75616565 17.55274547 -35.62914292 17.25054973 -33.49804688 16.96777344 C-23.37752883 15.73138324 -23.37752883 15.73138324 -15.7109375 9.48828125 C-14.79523999 7.99953333 -13.8903787 6.50402729 -13 5 C-9.16671514 0.62677139 -5.88301014 -0.94548377 0 0 Z "
     fill="#E31B33"
     id="path3"
     transform="translate(774,402)" />
  <path
     d="M0 0 C2 2 2 2 2.27587891 5.69433594 C2.11525101 12.51669614 0.77954159 19.1889774 -0.4140625 25.890625 C-0.6676633 27.34788771 -0.92053101 28.80527817 -1.17271423 30.26278687 C-1.84373571 34.13105371 -2.52346483 37.9977395 -3.20512772 41.86414337 C-4.32345821 48.21887626 -5.42663228 54.5762731 -6.53170204 60.93332291 C-6.8047754 62.50345496 -7.0781708 64.07353104 -7.35188866 65.64355087 C-8.98081336 74.98885141 -10.56858178 84.33722065 -12.02734375 93.7109375 C-12.1660791 94.59821533 -12.30481445 95.48549316 -12.44775391 96.3996582 C-13.05161362 100.27889772 -13.64143542 104.15959091 -14.21142578 108.04394531 C-14.41106934 109.34170898 -14.61071289 110.63947266 -14.81640625 111.9765625 C-14.97568604 113.06018066 -15.13496582 114.14379883 -15.29907227 115.26025391 C-16.0396614 118.15502622 -17.0436065 119.7726388 -19 122 C-23.41133614 121.50582204 -25.311483 120.15992877 -28.36328125 116.9921875 C-29.16830078 116.16976562 -29.97332031 115.34734375 -30.80273438 114.5 C-32.04506836 113.200625 -32.04506836 113.200625 -33.3125 111.875 C-38.48465332 106.53547628 -43.62635451 101.28477215 -49.29760742 96.47094727 C-51.66001409 94.42971678 -53.8273398 92.24055583 -56 90 C-59.25207092 91.41738489 -61.31361067 93.12526412 -63.75 95.6875 C-66.95384814 99.04615593 -70.35644947 102.07686356 -73.85888672 105.11499023 C-77.38407258 108.21852046 -80.78088111 111.45505172 -84.1875 114.6875 C-89.30851722 119.52742457 -94.43899457 124.35471945 -99.625 129.125 C-104.26867747 133.39689281 -108.8907397 137.69098668 -113.5 142 C-118.1092622 146.3090151 -122.73152434 150.60288634 -127.375 154.875 C-133.14129551 160.18356786 -138.84987743 165.55217095 -144.55322266 170.92822266 C-154.30001687 180.11442839 -164.09179412 189.250744 -173.94628906 198.32128906 C-179.23538113 203.19932844 -184.46628053 208.13861653 -189.70043945 213.07543945 C-194.47992333 217.57969042 -199.28799697 222.0505315 -204.12158203 226.49658203 C-209.08199607 231.06397038 -213.99992904 235.67600994 -218.91601562 240.29101562 C-225.30934808 246.2927947 -231.71937585 252.27651978 -238.13232422 258.25732422 C-240.02792198 260.02605322 -241.92232588 261.79605249 -243.81640625 263.56640625 C-249.67444506 269.04060632 -255.53952331 274.5063287 -261.4375 279.9375 C-270.42643639 288.21762145 -279.32164332 296.59825744 -288.22265625 304.97265625 C-292.14057871 308.65688449 -296.06533433 312.33365637 -300 316 C-300.52948242 316.4935498 -301.05896484 316.98709961 -301.60449219 317.49560547 C-302.9810023 318.77366381 -304.36519512 320.04343394 -305.75 321.3125 C-306.48734375 321.98925781 -307.2246875 322.66601562 -307.984375 323.36328125 C-312.04365146 326.65947667 -315.47235608 327.65703893 -320.66015625 327.48046875 C-325.26163163 326.5355915 -327.84025688 323.29031102 -331 320 C-332.71505549 318.27595963 -334.43722682 316.55919018 -336.15942383 314.84228516 C-337.35362772 313.64697244 -338.54260953 312.44641083 -339.7253418 311.23974609 C-342.55666204 308.36280498 -345.41893812 305.60858803 -348.5 303 C-356.08940335 296.44883872 -362.97006742 289.08103494 -370.01855469 281.9609375 C-379.3181531 272.51072925 -379.3181531 272.51072925 -389.1484375 263.62451172 C-393.12141537 260.13872655 -396.78412705 256.31771036 -400.5 252.5625 C-401.32242188 251.73556641 -402.14484375 250.90863281 -402.9921875 250.05664062 C-404.99712113 248.04005041 -406.99966253 246.02114764 -409 244 C-412.44399263 245.22512844 -414.85832126 246.47630358 -417.48828125 249.01171875 C-418.10807861 249.60122314 -418.72787598 250.19072754 -419.36645508 250.7980957 C-420.0086499 251.42159912 -420.65084473 252.04510254 -421.3125 252.6875 C-422.6554349 253.96700189 -423.99917591 255.24565828 -425.34375 256.5234375 C-425.98054687 257.13155273 -426.61734375 257.73966797 -427.2734375 258.36621094 C-429.82098842 260.77687422 -432.45625607 263.07512724 -435.11328125 265.36328125 C-437.43658787 267.37873772 -439.71748465 269.43848462 -442 271.5 C-444.95869751 274.17048344 -447.92926472 276.82298058 -450.9375 279.4375 C-454.16559512 282.24822525 -457.33738443 285.115799 -460.5 288 C-468.29031331 295.09760419 -476.26986304 301.96245843 -484.27734375 308.8125 C-486.73163705 310.91232 -489.1820438 313.01652637 -491.62890625 315.125 C-496.93176753 319.69048759 -502.24470512 324.22592289 -507.6875 328.625 C-512.4269454 332.4723145 -516.94576737 336.51953379 -521.43359375 340.65625 C-523.66824576 342.69702809 -525.94206842 344.66837207 -528.25 346.625 C-531.69526229 349.59627343 -534.59040986 352.87133565 -537.45703125 356.3984375 C-539.76328305 358.79226849 -541.95342069 358.99360676 -545.1875 359.4375 C-549.64585022 358.92588604 -552.0109187 357.79396565 -555.44921875 354.9765625 C-557.89451039 351.85989356 -557.86132624 349.22641364 -557.51171875 345.375 C-554.78867964 332.73677268 -537.49163243 319.89727119 -527.99609375 311.77734375 C-524.93333273 309.05022777 -522.09776507 306.10595363 -519.21875 303.1875 C-516.59228878 300.59803119 -513.83023542 298.21163036 -511.03125 295.8125 C-508.76361428 293.7890712 -506.6342305 291.66346653 -504.5 289.5 C-501.77170593 286.73439592 -499.01483166 284.08712969 -496.0625 281.5625 C-492.8896408 278.84380752 -489.93661618 275.97248325 -487 273 C-484.10408042 270.06881809 -481.19757429 267.23596826 -478.0625 264.5625 C-474.19461192 261.25721383 -470.6407893 257.67005004 -467.07104492 254.05151367 C-463.82651299 250.77995805 -460.46391322 247.73044025 -456.9609375 244.7421875 C-453.90633647 242.02833878 -451.08338457 239.09136248 -448.21484375 236.18359375 C-446.22340539 234.22025329 -444.18697422 232.37920331 -442.0625 230.5625 C-437.97221221 227.05770072 -434.2329093 223.24801386 -430.44921875 219.41796875 C-427.6900226 216.69397765 -424.81062951 214.16461056 -421.86328125 211.6484375 C-419.9837634 209.98563554 -418.24427841 208.24083975 -416.5 206.4375 C-407.73791509 197.63558743 -407.73791509 197.63558743 -401.5 196.1875 C-397.24650231 197.17491911 -395.3327448 198.8207058 -392.25146484 201.82543945 C-390.06216606 203.93995737 -387.81131816 205.95341769 -385.52734375 207.96484375 C-379.23210527 213.61130317 -373.31468381 219.610536 -367.375 225.625 C-359.42883766 233.78642743 -359.42883766 233.78642743 -351.0234375 241.4609375 C-347.4387366 244.51263894 -344.17084625 247.8168406 -340.890625 251.1875 C-340.35140411 251.73932953 -339.81218323 252.29115906 -339.25662231 252.85971069 C-337.01152187 255.15908692 -334.76827457 257.45977847 -332.54345703 259.77880859 C-330.89960499 261.48892591 -329.24055037 263.1829595 -327.578125 264.875 C-327.07702209 265.40504639 -326.57591919 265.93509277 -326.05963135 266.48120117 C-323.44664336 269.24282554 -323.44664336 269.24282554 -319.89282227 270.02978516 C-317.63807177 268.80309387 -315.99126065 267.42789206 -314.13671875 265.6484375 C-313.41419922 264.96136719 -312.69167969 264.27429688 -311.94726562 263.56640625 C-311.20154297 262.84324219 -310.45582031 262.12007813 -309.6875 261.375 C-308.95337891 260.67503906 -308.21925781 259.97507812 -307.46289062 259.25390625 C-303.9973035 255.93899683 -300.57510946 252.58586575 -297.1953125 249.18359375 C-294.9356922 246.91265109 -292.64526866 244.74581191 -290.1875 242.6875 C-286.97666245 239.92381971 -283.97732835 237.01380404 -281 234 C-277.43640017 230.39280873 -273.78075144 227.00522111 -269.9296875 223.7109375 C-267.86691479 221.88200137 -265.9340928 219.96419542 -264 218 C-261.48044611 215.44130741 -258.91881218 213.01829389 -256.1875 210.6875 C-252.79804395 207.77749549 -249.63548547 204.67840058 -246.5 201.5 C-242.83153502 197.78153039 -239.0685078 194.26331813 -235.09375 190.875 C-231.95556727 188.06468711 -229.0279331 185.04881363 -226.07080078 182.05126953 C-222.82635263 178.77979369 -219.46382493 175.73036494 -215.9609375 172.7421875 C-212.90770829 170.02955756 -210.0859685 167.09399547 -207.21875 164.1875 C-204.59228878 161.59803119 -201.83023542 159.21163036 -199.03125 156.8125 C-196.76361428 154.7890712 -194.6342305 152.66346653 -192.5 150.5 C-189.77170593 147.73439592 -187.01483166 145.08712969 -184.0625 142.5625 C-180.8896408 139.84380752 -177.93661618 136.97248325 -175 134 C-172.10408042 131.06881809 -169.19757429 128.23596826 -166.0625 125.5625 C-162.71074927 122.69827665 -159.59443244 119.63666284 -156.5 116.5 C-152.81005412 112.75969662 -149.02496302 109.2176065 -145.02734375 105.80859375 C-141.6839383 102.8259411 -138.5892363 99.59643308 -135.44140625 96.41015625 C-132.72797273 93.73145468 -129.89222977 91.25391882 -126.99609375 88.77734375 C-124.73867374 86.76731223 -122.62264287 84.65167047 -120.5 82.5 C-117.87292508 79.83730372 -115.23270989 77.2873525 -112.375 74.875 C-105.52641274 69.01875906 -99.32694122 62.40726371 -93 56 C-94.48580272 52.5443498 -96.44787352 50.3069206 -99.10546875 47.6640625 C-100.33426758 46.43816406 -100.33426758 46.43816406 -101.58789062 45.1875 C-102.44576172 44.341875 -103.30363281 43.49625 -104.1875 42.625 C-105.02603516 41.78710938 -105.86457031 40.94921875 -106.72851562 40.0859375 C-110.3958411 36.44437777 -114.05740406 32.88982897 -118.046875 29.6015625 C-121 27 -121 27 -122.0625 23.75 C-122 21 -122 21 -120 19 C-117.91575623 18.43000793 -117.91575623 18.43000793 -115.25952148 17.96801758 C-114.2355275 17.78671799 -113.21153351 17.6054184 -112.1565094 17.41862488 C-111.01044724 17.22504898 -109.86438507 17.03147308 -108.68359375 16.83203125 C-106.85241249 16.51429497 -106.85241249 16.51429497 -104.98423767 16.19013977 C-87.67705681 13.20252982 -70.33241432 10.42757338 -52.99194336 7.64135742 C-47.99061073 6.83764197 -42.99024846 6.02804544 -37.99009037 5.21705914 C-34.10181338 4.58725415 -30.21296557 3.96103338 -26.32394218 3.33585548 C-24.47738151 3.03846506 -22.63101986 2.73983592 -20.78486824 2.43991661 C-18.22703654 2.02480933 -15.66845468 1.61467765 -13.10961914 1.20581055 C-12.35807053 1.08275543 -11.60652191 0.95970032 -10.8321991 0.83291626 C-3.48731074 -0.32987701 -3.48731074 -0.32987701 0 0 Z "
     fill="#3B5660"
     transform="translate(859,226)"
     id="path4" />
  <path
     d="M0 0 C3.0625 0.3125 3.0625 0.3125 4.7355957 1.38989258 C6.76707808 4.33339281 6.39878095 6.8495554 6.35546875 10.38671875 C6.35122391 11.0705513 6.34697906 11.75438385 6.34260559 12.4589386 C6.32583353 14.63969561 6.28818657 16.81952309 6.25 19 C6.23495114 20.47980435 6.22126308 21.9596232 6.20898438 23.43945312 C6.17593569 27.06410336 6.12416446 30.68821094 6.0625 34.3125 C6.70799805 34.28631592 7.35349609 34.26013184 8.01855469 34.2331543 C10.94962117 34.12907561 13.88029909 34.0641419 16.8125 34 C17.82828125 33.95810547 18.8440625 33.91621094 19.890625 33.87304688 C20.8703125 33.85693359 21.85 33.84082031 22.859375 33.82421875 C24.21047363 33.78494263 24.21047363 33.78494263 25.58886719 33.74487305 C28.0625 34.3125 28.0625 34.3125 30.1837616 36.0773468 C33.09612595 41.09238499 32.62746454 45.94167202 32.59594727 51.64257812 C32.60887062 53.51894203 32.60887062 53.51894203 32.62205505 55.43321228 C32.64085188 58.85702702 32.64161575 62.27987299 32.63273358 65.70366478 C32.62761799 68.56408901 32.63492074 71.4244267 32.64220566 74.28484201 C32.65919665 81.03323358 32.65564653 87.78139897 32.63891602 94.52978516 C32.62198845 101.48790989 32.63783907 108.44540757 32.6701389 115.40346384 C32.69684036 121.38240906 32.70410958 127.36115914 32.69562382 133.34015799 C32.69069694 136.9090476 32.6928968 140.4775598 32.71341133 144.04640198 C32.73518921 148.0253249 32.71636332 152.0034924 32.69360352 155.98242188 C32.70529572 157.16283554 32.71698792 158.34324921 32.72903442 159.55943298 C32.63672311 167.475101 32.63672311 167.475101 29.84068298 171.5526123 C26.85930367 173.4412182 25.46404101 173.90763929 21.98046875 173.80078125 C20.58344727 173.77661133 20.58344727 173.77661133 19.15820312 173.75195312 C18.19849609 173.71005859 17.23878906 173.66816406 16.25 173.625 C14.78143555 173.59116211 14.78143555 173.59116211 13.28320312 173.55664062 C10.87472545 173.49789727 8.46940922 173.41582129 6.0625 173.3125 C6.07582367 174.67100067 6.07582367 174.67100067 6.0894165 176.0569458 C6.16955674 184.59101125 6.23046152 193.12495037 6.26974869 201.65930557 C6.29062571 206.04695942 6.3189451 210.43430241 6.36425781 214.82177734 C6.40771201 219.05578416 6.43163624 223.28949194 6.44200897 227.52370453 C6.44940117 229.13927671 6.4638365 230.75483249 6.48542023 232.3702774 C6.51444982 234.63295383 6.51845638 236.89439395 6.51660156 239.15722656 C6.52548401 240.44518127 6.53436646 241.73313599 6.54351807 243.06011963 C6.0625 246.3125 6.0625 246.3125 4.1942749 248.75970459 C2.0625 250.3125 2.0625 250.3125 -0.5 250.3125 C-3.51953683 249.07371566 -4.31311168 248.13538507 -5.9375 245.3125 C-6.29826355 242.0980835 -6.29826355 242.0980835 -6.27807617 238.24902344 C-6.27851425 237.54618225 -6.27895233 236.84334106 -6.27940369 236.11920166 C-6.27731874 233.80314052 -6.25400259 231.4878092 -6.23046875 229.171875 C-6.22487173 227.56333817 -6.22060213 225.95479622 -6.21760559 224.34625244 C-6.20616513 220.11781634 -6.176705 215.88969063 -6.14349365 211.66137695 C-6.11277544 207.34460651 -6.09909652 203.02778579 -6.08398438 198.7109375 C-6.05183438 190.24464942 -6.00064789 181.77861335 -5.9375 173.3125 C-6.51717529 173.33344727 -7.09685059 173.35439453 -7.6940918 173.37597656 C-10.33754924 173.45946807 -12.9807288 173.51126153 -15.625 173.5625 C-16.53701172 173.59601563 -17.44902344 173.62953125 -18.38867188 173.6640625 C-19.27490234 173.67695312 -20.16113281 173.68984375 -21.07421875 173.703125 C-21.88592529 173.72407227 -22.69763184 173.74501953 -23.53393555 173.76660156 C-27.24393056 173.06567818 -28.52413304 172.29161727 -30.9375 169.3125 C-31.69850877 165.14647478 -31.59883879 161.01299086 -31.55273438 156.78881836 C-31.55828339 155.50558182 -31.5638324 154.22234528 -31.56954956 152.90022278 C-31.58379582 149.38355582 -31.56673964 145.86767092 -31.54326439 142.35107875 C-31.52315889 138.67160123 -31.52903471 134.99215627 -31.53137207 131.31263733 C-31.5313185 125.13464454 -31.51156218 118.95695762 -31.47949219 112.77905273 C-31.442583 105.6341508 -31.43381882 98.48964933 -31.4407897 91.34466451 C-31.44709188 84.47285545 -31.43634681 77.60118387 -31.41682434 70.72940254 C-31.40864472 67.8040121 -31.40594181 64.87869186 -31.40751648 61.95329094 C-31.40855752 57.8709167 -31.38440238 53.78907219 -31.35742188 49.70678711 C-31.36035248 48.48955963 -31.36328308 47.27233215 -31.36630249 46.01821899 C-31.3549527 44.90920731 -31.34360291 43.80019562 -31.33190918 42.65757751 C-31.32818047 41.69212478 -31.32445175 40.72667204 -31.32061005 39.73196316 C-30.87107865 36.89302784 -30.23738327 35.98907825 -27.9375 34.3125 C-25.4855957 33.97192383 -25.4855957 33.97192383 -22.61328125 34.01953125 C-21.58525391 34.02919922 -20.55722656 34.03886719 -19.49804688 34.04882812 C-17.89026367 34.0865332 -17.89026367 34.0865332 -16.25 34.125 C-15.16654297 34.13853516 -14.08308594 34.15207031 -12.96679688 34.16601562 C-10.28986595 34.20139357 -7.61393162 34.25075811 -4.9375 34.3125 C-4.94797363 33.35359863 -4.95844727 32.39469727 -4.96923828 31.40673828 C-5.00539328 27.85469281 -5.02838393 24.30266366 -5.04736328 20.75048828 C-5.05743118 19.21204902 -5.07108646 17.67362893 -5.08837891 16.13525391 C-5.11259317 13.92605867 -5.12397491 11.71711605 -5.1328125 9.5078125 C-5.14313507 8.81817413 -5.15345764 8.12853577 -5.16409302 7.41799927 C-5.16449478 5.71449094 -5.05941026 4.01164057 -4.9375 2.3125 C-2.9375 0.3125 -2.9375 0.3125 0 0 Z "
     fill="#058A4F"
     transform="translate(402.9375,568.6875)"
     id="path5" />
  <path
     d="M0 0 C2.06161171 1.55336893 2.89670209 2.42928157 3.36076355 4.99320984 C3.35410172 5.75043839 3.34743988 6.50766693 3.34057617 7.2878418 C3.34023628 8.57884041 3.34023628 8.57884041 3.33988953 9.8959198 C3.32440567 10.82100845 3.30892181 11.74609711 3.29296875 12.69921875 C3.28872391 13.64940384 3.28447906 14.59958893 3.28010559 15.5785675 C3.26330484 18.61516588 3.22564992 21.65110202 3.1875 24.6875 C3.17245497 26.74543313 3.15876625 28.80337665 3.14648438 30.86132812 C3.11339671 35.90780748 3.06160462 40.95379144 3 46 C3.62044189 45.98428955 4.24088379 45.9685791 4.88012695 45.95239258 C7.69082528 45.89003786 10.50137812 45.85100852 13.3125 45.8125 C14.28896484 45.78736328 15.26542969 45.76222656 16.27148438 45.73632812 C17.20927734 45.72666016 18.14707031 45.71699219 19.11328125 45.70703125 C19.97735596 45.6913208 20.84143066 45.67561035 21.73168945 45.65942383 C24.56463219 46.08477687 25.25837572 46.75988391 27 49 C27.37752342 51.18799591 27.37752342 51.18799591 27.38095093 53.78234863 C27.39364014 55.25871544 27.39364014 55.25871544 27.40658569 56.76490784 C27.400513 57.84344528 27.39444031 58.92198273 27.38818359 60.03320312 C27.39344055 61.16999008 27.39869751 62.30677704 27.40411377 63.47801208 C27.41734694 67.24589671 27.40856361 71.01336088 27.3984375 74.78125 C27.40045727 77.39294516 27.4033679 80.00463978 27.40713501 82.61633301 C27.41259399 88.09404072 27.4053973 93.57162711 27.39111328 99.04931641 C27.37478636 105.38360138 27.38007478 111.71759668 27.3965925 118.05187464 C27.4118423 124.14358523 27.41023401 130.23516731 27.4014473 136.32688904 C27.3994418 138.92012065 27.40191673 141.51335962 27.40888596 144.10658264 C27.41647945 147.72685511 27.40492499 151.34656635 27.38818359 154.96679688 C27.39729263 156.58460304 27.39729263 156.58460304 27.40658569 158.23509216 C27.39389648 159.71145897 27.39389648 159.71145897 27.38095093 161.21765137 C27.37981985 162.07378777 27.37868877 162.92992416 27.37752342 163.81200409 C26.91551464 166.48964807 26.14565919 167.37892735 24 169 C21.73168945 169.34057617 21.73168945 169.34057617 19.11328125 169.29296875 C18.17548828 169.28330078 17.23769531 169.27363281 16.27148438 169.26367188 C15.29501953 169.23853516 14.31855469 169.21339844 13.3125 169.1875 C12.32443359 169.17396484 11.33636719 169.16042969 10.31835938 169.14648438 C7.87835769 169.11112203 5.43945281 169.06177033 3 169 C3.00888245 169.84302673 3.01776489 170.68605347 3.0269165 171.55462646 C3.1070705 179.50004193 3.16796841 187.44532158 3.20724869 195.39104843 C3.22812211 199.4760437 3.25643463 203.56070485 3.30175781 207.64550781 C3.3452253 211.58774345 3.36913895 215.52965777 3.37950897 219.47211456 C3.38689882 220.97604684 3.40132967 222.47996157 3.42292023 223.98375702 C3.45196812 226.09079459 3.45595571 228.19650529 3.45410156 230.30371094 C3.46298401 231.50284119 3.47186646 232.70197144 3.48101807 233.93743896 C3 237 3 237 1.16693115 239.42242432 C-1 241 -1 241 -4.125 240.9375 C-7 240 -7 240 -9 237 C-9.24050903 234.05769348 -9.24050903 234.05769348 -9.22705078 230.41723633 C-9.22734283 229.75355545 -9.22763489 229.08987457 -9.22793579 228.40608215 C-9.22654357 226.21459839 -9.21098779 224.02345555 -9.1953125 221.83203125 C-9.19158198 220.31174404 -9.18873519 218.79145442 -9.18673706 217.27116394 C-9.17910366 213.27130486 -9.15945774 209.27159121 -9.1373291 205.27178955 C-9.11686434 201.18967659 -9.107734 197.10754011 -9.09765625 193.02539062 C-9.07621152 185.01686037 -9.04207917 177.00844828 -9 169 C-9.97610229 169.02356567 -9.97610229 169.02356567 -10.97192383 169.04760742 C-13.91869424 169.10994649 -16.86532598 169.14898684 -19.8125 169.1875 C-20.83666016 169.21263672 -21.86082031 169.23777344 -22.91601562 169.26367188 C-24.39038086 169.27817383 -24.39038086 169.27817383 -25.89453125 169.29296875 C-27.25348511 169.31653442 -27.25348511 169.31653442 -28.63989258 169.34057617 C-31.54250326 168.92171387 -32.22449356 168.29321597 -34 166 C-34.37752342 163.81200409 -34.37752342 163.81200409 -34.38095093 161.21765137 C-34.3894104 160.23340683 -34.39786987 159.24916229 -34.40658569 158.23509216 C-34.39747665 156.617286 -34.39747665 156.617286 -34.38818359 154.96679688 C-34.39344055 153.83000992 -34.39869751 152.69322296 -34.40411377 151.52198792 C-34.41734694 147.75410329 -34.40856361 143.98663912 -34.3984375 140.21875 C-34.40045727 137.60705484 -34.4033679 134.99536022 -34.40713501 132.38366699 C-34.41259399 126.90595928 -34.4053973 121.42837289 -34.39111328 115.95068359 C-34.37478636 109.61639862 -34.38007478 103.28240332 -34.3965925 96.94812536 C-34.4118423 90.85641477 -34.41023401 84.76483269 -34.4014473 78.67311096 C-34.3994418 76.07987935 -34.40191673 73.48664038 -34.40888596 70.89341736 C-34.41647945 67.27314489 -34.40492499 63.65343365 -34.38818359 60.03320312 C-34.39425629 58.95466568 -34.40032898 57.87612823 -34.40658569 56.76490784 C-34.39812622 55.7806633 -34.38966675 54.79641876 -34.38095093 53.78234863 C-34.37925431 52.49814404 -34.37925431 52.49814404 -34.37752342 51.18799591 C-33.91519805 48.50851709 -33.15044993 47.61895129 -31 46 C-28.63989258 45.65942383 -28.63989258 45.65942383 -25.89453125 45.70703125 C-24.91162109 45.71669922 -23.92871094 45.72636719 -22.91601562 45.73632812 C-21.89185547 45.76146484 -20.86769531 45.78660156 -19.8125 45.8125 C-18.77673828 45.82603516 -17.74097656 45.83957031 -16.67382812 45.85351562 C-14.11536301 45.88888611 -11.5579422 45.93824456 -9 46 C-9.01571045 44.71311279 -9.0314209 43.42622559 -9.04760742 42.1003418 C-9.10185775 37.33136236 -9.1363323 32.56241026 -9.16479492 27.79321289 C-9.17989271 25.72806209 -9.20037274 23.6629434 -9.22631836 21.59790039 C-9.26265795 18.63159261 -9.2797163 15.66570829 -9.29296875 12.69921875 C-9.30845261 11.7741301 -9.32393646 10.84904144 -9.33988953 9.8959198 C-9.34011612 9.03525406 -9.34034271 8.17458832 -9.34057617 7.2878418 C-9.34723801 6.53061325 -9.35389984 5.7733847 -9.36076355 4.99320984 C-8.41713577 -0.22031072 -4.6542961 -0.58178701 0 0 Z "
     fill="#E31A31"
     transform="translate(505,601)"
     id="path6" />
  <path
     d="M0 0 C2.36770346 2.1479591 3.67142639 4.06974289 4.9453125 6.9921875 C5.29537354 7.77343994 5.64543457 8.55469238 6.00610352 9.35961914 C6.37533936 10.18969482 6.7445752 11.01977051 7.125 11.875 C12.46640785 23.49912488 19.3334986 33.26855291 27.56640625 43.07421875 C29 45 29 45 29 47 C15.14 53.435 15.14 53.435 1 60 C4.53242555 72.952227 8.97182923 77.93086887 19.1875 85.375 C20.68127976 86.48875303 22.17345548 87.60466049 23.6640625 88.72265625 C24.75895996 89.5427417 24.75895996 89.5427417 25.87597656 90.37939453 C30.72518931 94.07928812 35.36174624 98.04095103 40 102 C38.606857 106.80267718 36.49553476 110.84049654 33.875 115.0625 C33.28319946 116.03062622 33.28319946 116.03062622 32.67944336 117.01831055 C31.86259228 118.35297375 31.04315997 119.68606049 30.22119141 121.01757812 C29.03787868 122.93850963 27.8667356 124.8663115 26.69921875 126.796875 C21.27780617 135.72219383 21.27780617 135.72219383 19 138 C16.56982422 138.34082031 16.56982422 138.34082031 14 138 C12.37158203 136.62011719 12.37158203 136.62011719 10.8828125 134.546875 C10.28629883 133.72123047 9.68978516 132.89558594 9.07519531 132.04492188 C4.60751567 125.48952181 0.21181782 118.89276083 -4.125 112.25 C-4.6344516 111.47232269 -5.1439032 110.69464539 -5.66879272 109.8934021 C-13.16619687 98.44838455 -20.51620528 86.92990177 -27.62988281 75.24169922 C-29.95579255 71.43619259 -32.32151764 67.65567576 -34.6875 63.875 C-35.09846924 63.21669189 -35.50943848 62.55838379 -35.93286133 61.88012695 C-37.58998811 59.2297875 -39.26598057 56.60102914 -41 54 C-41.86681007 49.75032939 -41.91199508 45.7243866 -39.85546875 41.8359375 C-38.01358784 39.44283675 -36.03238606 37.23388758 -34 35 C-32.7091293 33.43121955 -31.41828937 31.86241369 -30.12792969 30.29321289 C-24.58708364 23.63574549 -18.61952858 17.43817948 -12.5 11.3125 C-11.72229248 10.53398682 -10.94458496 9.75547363 -10.14331055 8.95336914 C-6.88751771 5.72955506 -3.72278797 2.68494177 0 0 Z "
     fill="#06894F"
     transform="translate(252,476)"
     id="path7" />
  <path
     d="M0 0 C3.5 0.25 3.5 0.25 5.5 2.25 C5.67495606 4.75920846 5.73169569 7.15624941 5.6953125 9.6640625 C5.6924826 10.39370209 5.68965271 11.12334167 5.68673706 11.87509155 C5.67553002 14.20856028 5.6504251 16.54164703 5.625 18.875 C5.61497085 20.45572363 5.60584489 22.03645327 5.59765625 23.6171875 C5.57558905 27.49493914 5.54105615 31.37240478 5.5 35.25 C6.94632812 35.18039062 6.94632812 35.18039062 8.421875 35.109375 C9.68515625 35.07328125 10.9484375 35.0371875 12.25 35 C14.12945312 34.93039062 14.12945312 34.93039062 16.046875 34.859375 C19.5 35.25 19.5 35.25 21.68347168 36.80822754 C24.1012142 40.0581505 24.06269384 42.81228257 24.01757812 46.70898438 C24.0245874 47.45416824 24.03159668 48.19935211 24.03881836 48.96711731 C24.05640042 51.42637576 24.04477574 53.88448018 24.03125 56.34375 C24.03394488 58.05481181 24.03782726 59.76587214 24.04284668 61.47692871 C24.04874198 65.06142775 24.04017799 68.64552784 24.02148438 72.22998047 C23.99869451 76.82366439 24.01181746 81.41641354 24.03577423 86.01006317 C24.05023152 89.54285724 24.04562661 93.07542984 24.03526306 96.60823059 C24.03259557 98.30190644 24.03586635 99.99560243 24.04518127 101.68925476 C24.05534612 104.05704976 24.03984879 106.42333317 24.01757812 108.79101562 C24.02567505 109.49035721 24.03377197 110.18969879 24.04211426 110.91023254 C23.98424606 114.23277141 23.68892332 115.99604978 21.68347168 118.69177246 C18.51801651 120.95078936 16.08361543 120.64198576 12.25 120.5 C10.98671875 120.46390625 9.7234375 120.4278125 8.421875 120.390625 C7.45765625 120.34421875 6.4934375 120.2978125 5.5 120.25 C5.51571045 121.20366455 5.5314209 122.1573291 5.54760742 123.13989258 C5.60191678 126.67886913 5.63635333 130.21780886 5.66479492 133.75708008 C5.67987936 135.28871861 5.70034978 136.82031398 5.72631836 138.35180664 C5.76271847 140.55365654 5.77972913 142.75493533 5.79296875 144.95703125 C5.80845261 145.64150833 5.82393646 146.32598541 5.83988953 147.03120422 C5.84090593 149.90395724 5.82111315 151.79443259 4.13793945 154.18237305 C1.78107455 155.71860351 0.2530239 155.66295358 -2.5 155.25 C-4.13793945 154.18237305 -4.13793945 154.18237305 -5.5 152.25 C-5.76153286 149.73272281 -5.8497922 147.46896034 -5.79296875 144.95703125 C-5.78872391 144.25100266 -5.78447906 143.54497406 -5.78010559 142.81755066 C-5.76333034 140.56547697 -5.72568243 138.31430258 -5.6875 136.0625 C-5.67245157 134.53451815 -5.65876344 133.00652224 -5.64648438 131.47851562 C-5.61343089 127.73533128 -5.56165832 123.99281804 -5.5 120.25 C-6.59699219 120.30800781 -7.69398438 120.36601563 -8.82421875 120.42578125 C-10.27860314 120.47269688 -11.73303374 120.51819511 -13.1875 120.5625 C-13.90873047 120.60439453 -14.62996094 120.64628906 -15.37304688 120.68945312 C-16.43168945 120.71362305 -16.43168945 120.71362305 -17.51171875 120.73828125 C-18.15584717 120.76446533 -18.79997559 120.79064941 -19.46362305 120.81762695 C-22.87377662 119.86706862 -24.35289061 117.9960533 -26.5 115.25 C-27.13491821 111.83508301 -27.13491821 111.83508301 -27.14697266 107.87695312 C-27.15573425 107.15273666 -27.16449585 106.4285202 -27.17352295 105.68235779 C-27.19545752 103.29803842 -27.18098755 100.91558687 -27.1640625 98.53125 C-27.1674324 96.86885219 -27.17228647 95.20645678 -27.17855835 93.54406738 C-27.18592155 90.06380707 -27.17524267 86.58418938 -27.15185547 83.10400391 C-27.1233672 78.64813334 -27.13977425 74.19376853 -27.16971779 69.73795319 C-27.1878062 66.3063019 -27.18202584 62.87500625 -27.16907883 59.44334412 C-27.16574904 57.80073365 -27.16981691 56.15809065 -27.18147659 54.51551819 C-27.19421185 52.21716096 -27.17477609 49.92122426 -27.14697266 47.62304688 C-27.14299469 46.31686401 -27.13901672 45.01068115 -27.13491821 43.66491699 C-26.33585023 39.36711803 -24.93827592 37.87703912 -21.5 35.25 C-19.46362305 34.68237305 -19.46362305 34.68237305 -17.51171875 34.76171875 C-16.80595703 34.77783203 -16.10019531 34.79394531 -15.37304688 34.81054688 C-14.29120117 34.87338867 -14.29120117 34.87338867 -13.1875 34.9375 C-12.44693359 34.96005859 -11.70636719 34.98261719 -10.94335938 35.00585938 C-9.12802643 35.0644185 -7.31374319 35.15409114 -5.5 35.25 C-5.51047363 34.26080566 -5.52094727 33.27161133 -5.53173828 32.25244141 C-5.56789019 28.58857836 -5.59088282 24.92473114 -5.60986328 21.26074219 C-5.61993188 19.67380117 -5.63358767 18.08687875 -5.65087891 16.5 C-5.67509001 14.22130753 -5.68647422 11.94285994 -5.6953125 9.6640625 C-5.70563507 8.95255035 -5.71595764 8.24103821 -5.72659302 7.50796509 C-5.72699422 5.75368335 -5.62202209 4.00003291 -5.5 2.25 C-3.5 0.25 -3.5 0.25 0 0 Z "
     fill="#068A4F"
     transform="translate(318.5,621.75)"
     id="path8" />
  <path
     d="M0 0 C11.82046666 0.75559999 23.62862993 1.64523208 35.4375 2.5625 C37.24804128 2.70254635 39.05858812 2.84252074 40.86914062 2.98242188 C45.24615818 3.32078766 49.62309994 3.66011799 54 4 C53.66444092 5.12639893 53.32888184 6.25279785 52.9831543 7.41333008 C42.13383533 38.30442065 42.13383533 38.30442065 45 69 C47.26601865 70.29042763 47.26601865 70.29042763 50 71 C55.22316474 73.17631864 57.76636052 75.47290473 61 80 C61.63671875 82.19140625 61.63671875 82.19140625 62 84 C54.58027886 84.10163607 47.16073808 84.17156495 39.74047852 84.21972656 C37.21762381 84.23980963 34.69481547 84.26708157 32.17211914 84.30175781 C28.54041077 84.35041913 24.90931929 84.37300265 21.27734375 84.390625 C19.59257179 84.42159271 19.59257179 84.42159271 17.87376404 84.45318604 C11.38350471 84.45503491 7.13733025 84.135291 2 80 C-1.86978078 74.8187716 -1.4037033 69.26385773 -1.328125 63.06640625 C-1.32625183 61.99744614 -1.32437866 60.92848602 -1.32244873 59.82713318 C-1.31573205 57.55847058 -1.30182522 55.28981948 -1.28125 53.02124023 C-1.25063864 49.63318486 -1.24032309 46.24560069 -1.234375 42.85742188 C-1.18259923 28.5520123 -0.74251499 14.28567374 0 0 Z "
     fill="#E31C33"
     transform="translate(573,658)"
     id="path9" />
  <path
     d="M0 0 C3.96 0 7.92 0 12 0 C12.09267099 9.4488689 12.16375 18.89758142 12.20724869 28.34680557 C12.22812571 32.73445942 12.2564451 37.12180241 12.30175781 41.50927734 C12.34521201 45.74328416 12.36913624 49.97699194 12.37950897 54.21120453 C12.38690117 55.82677671 12.4013365 57.44233249 12.42292023 59.0577774 C12.45194982 61.32045383 12.45595638 63.58189395 12.45410156 65.84472656 C12.46298401 67.13268127 12.47186646 68.42063599 12.48101807 69.74761963 C12 73 12 73 10.1317749 75.44720459 C8 77 8 77 5.4375 77 C2.41796317 75.76121566 1.62438832 74.82288507 0 72 C-0.36076355 68.7855835 -0.36076355 68.7855835 -0.34057617 64.93652344 C-0.34101425 64.23368225 -0.34145233 63.53084106 -0.34190369 62.80670166 C-0.33981874 60.49064052 -0.31650259 58.1753092 -0.29296875 55.859375 C-0.28737173 54.25083817 -0.28310213 52.64229622 -0.28010559 51.03375244 C-0.26866513 46.80531634 -0.239205 42.57719063 -0.20599365 38.34887695 C-0.17527544 34.03210651 -0.16159652 29.71528579 -0.14648438 25.3984375 C-0.11433438 16.93214942 -0.06314789 8.46611335 0 0 Z "
     fill="#3D5C66"
     transform="translate(397,742)"
     id="path10" />
  <path
     d="M0 0 C3.96 0 7.92 0 12 0 C12.09268792 8.79694492 12.16375846 17.59372171 12.20724869 26.39104843 C12.22812211 30.4760437 12.25643463 34.56070485 12.30175781 38.64550781 C12.3452253 42.58774345 12.36913895 46.52965777 12.37950897 50.47211456 C12.38689882 51.97604684 12.40132967 53.47996157 12.42292023 54.98375702 C12.45196812 57.09079459 12.45595571 59.19650529 12.45410156 61.30371094 C12.46298401 62.50284119 12.47186646 63.70197144 12.48101807 64.93743896 C12 68 12 68 10.16693115 70.42242432 C8 72 8 72 4.875 71.9375 C2 71 2 71 0 68 C-0.24050903 65.05769348 -0.24050903 65.05769348 -0.22705078 61.41723633 C-0.22748886 60.42171501 -0.22748886 60.42171501 -0.22793579 59.40608215 C-0.22654357 57.21459839 -0.21098779 55.02345555 -0.1953125 52.83203125 C-0.19158198 51.31174404 -0.18873519 49.79145442 -0.18673706 48.27116394 C-0.17910366 44.27130486 -0.15945774 40.27159121 -0.1373291 36.27178955 C-0.11686434 32.18967659 -0.107734 28.10754011 -0.09765625 24.02539062 C-0.07621152 16.01686037 -0.04207917 8.00844828 0 0 Z "
     fill="#415E68"
     transform="translate(496,770)"
     id="path11" />
  <path
     d="M0 0 C2.06161171 1.55336893 2.89670209 2.42928157 3.36076355 4.99320984 C3.35410172 5.75043839 3.34743988 6.50766693 3.34057617 7.2878418 C3.34034958 8.14850754 3.34012299 9.00917328 3.33988953 9.8959198 C3.32440567 10.82100845 3.30892181 11.74609711 3.29296875 12.69921875 C3.28872391 13.64940384 3.28447906 14.59958893 3.28010559 15.5785675 C3.26330484 18.61516588 3.22564992 21.65110202 3.1875 24.6875 C3.17245497 26.74543313 3.15876625 28.80337665 3.14648438 30.86132812 C3.11339671 35.90780748 3.06160462 40.95379144 3 46 C-0.96 46 -4.92 46 -9 46 C-9.07408977 39.93109825 -9.12857359 33.86245903 -9.16479492 27.79321289 C-9.17989271 25.72806209 -9.20037274 23.6629434 -9.22631836 21.59790039 C-9.26265795 18.63159261 -9.2797163 15.66570829 -9.29296875 12.69921875 C-9.30845261 11.7741301 -9.32393646 10.84904144 -9.33988953 9.8959198 C-9.34022942 8.60492119 -9.34022942 8.60492119 -9.34057617 7.2878418 C-9.34723801 6.53061325 -9.35389984 5.7733847 -9.36076355 4.99320984 C-8.41713577 -0.22031072 -4.6542961 -0.58178701 0 0 Z "
     fill="#415E67"
     transform="translate(505,601)"
     id="path12" />
  <path
     d="M0 0 C3.5 0.25 3.5 0.25 5.5 2.25 C5.67495606 4.75920846 5.73169569 7.15624941 5.6953125 9.6640625 C5.6924826 10.39370209 5.68965271 11.12334167 5.68673706 11.87509155 C5.67553002 14.20856028 5.6504251 16.54164703 5.625 18.875 C5.61497085 20.45572363 5.60584489 22.03645327 5.59765625 23.6171875 C5.57558905 27.49493914 5.54105615 31.37240478 5.5 35.25 C1.87 35.25 -1.76 35.25 -5.5 35.25 C-5.54937279 30.58692986 -5.58570627 25.92401127 -5.60986328 21.26074219 C-5.61993188 19.67380117 -5.63358767 18.08687875 -5.65087891 16.5 C-5.67509001 14.22130753 -5.68647422 11.94285994 -5.6953125 9.6640625 C-5.70563507 8.95255035 -5.71595764 8.24103821 -5.72659302 7.50796509 C-5.72699422 5.75368335 -5.62202209 4.00003291 -5.5 2.25 C-3.5 0.25 -3.5 0.25 0 0 Z "
     fill="#3A5962"
     transform="translate(318.5,621.75)"
     id="path13" />
  <path
     d="M0 0 C3.63 0 7.26 0 11 0 C11.07417023 4.50232334 11.1286105 9.00429091 11.16479492 13.50708008 C11.17987936 15.03871861 11.20034978 16.57031398 11.22631836 18.10180664 C11.26271847 20.30365654 11.27972913 22.50493533 11.29296875 24.70703125 C11.30845261 25.39150833 11.32393646 26.07598541 11.33988953 26.78120422 C11.34090593 29.65395724 11.32111315 31.54443259 9.63793945 33.93237305 C7.28107455 35.46860351 5.7530239 35.41295358 3 35 C1.36206055 33.93237305 1.36206055 33.93237305 0 32 C-0.26153286 29.48272281 -0.3497922 27.21896034 -0.29296875 24.70703125 C-0.28872391 24.00100266 -0.28447906 23.29497406 -0.28010559 22.56755066 C-0.26333034 20.31547697 -0.22568243 18.06430258 -0.1875 15.8125 C-0.17245157 14.28451815 -0.15876344 12.75652224 -0.14648438 11.22851562 C-0.11343089 7.48533128 -0.06165832 3.74281804 0 0 Z "
     fill="#3A5962"
     transform="translate(313,742)"
     id="path14" />
  <path
     d="M0 0 C3.0625 0.3125 3.0625 0.3125 4.7355957 1.38989258 C6.76707808 4.33339281 6.39878095 6.8495554 6.35546875 10.38671875 C6.35122391 11.0705513 6.34697906 11.75438385 6.34260559 12.4589386 C6.32583353 14.63969561 6.28818657 16.81952309 6.25 19 C6.23495114 20.47980435 6.22126308 21.9596232 6.20898438 23.43945312 C6.17593569 27.06410336 6.12416446 30.68821094 6.0625 34.3125 C2.4325 34.3125 -1.1975 34.3125 -4.9375 34.3125 C-4.986877 29.79184572 -5.02320823 25.27134783 -5.04736328 20.75048828 C-5.05743118 19.21204902 -5.07108646 17.67362893 -5.08837891 16.13525391 C-5.11259317 13.92605867 -5.12397491 11.71711605 -5.1328125 9.5078125 C-5.14313507 8.81817413 -5.15345764 8.12853577 -5.16409302 7.41799927 C-5.16449478 5.71449094 -5.05941026 4.01164057 -4.9375 2.3125 C-2.9375 0.3125 -2.9375 0.3125 0 0 Z "
     fill="#395A62"
     transform="translate(402.9375,568.6875)"
     id="path15" />
  <path
     d="M0 0 C0.66 0 1.32 0 2 0 C2 1.32 2 2.64 2 4 C-30.34 4 -62.68 4 -96 4 C-96 3.34 -96 2.68 -96 2 C-64.32 2 -32.64 2 0 2 C0 1.34 0 0.68 0 0 Z "
     fill="#E33044"
     transform="translate(783,738)"
     id="path16" />
  <path
     d="M0 0 C0 3 0 3 -1.19335938 4.53393555 C-1.73798828 5.062854 -2.28261719 5.59177246 -2.84375 6.13671875 C-3.72353516 7.00200195 -3.72353516 7.00200195 -4.62109375 7.88476562 C-5.24113281 8.47966797 -5.86117187 9.07457031 -6.5 9.6875 C-7.12003906 10.29400391 -7.74007812 10.90050781 -8.37890625 11.52539062 C-9.91264707 13.02373743 -11.45548198 14.51276493 -13 16 C-13.99 15.67 -14.98 15.34 -16 15 C-13.89888324 12.87190742 -11.79429065 10.74746285 -9.6875 8.625 C-9.09259766 8.02171875 -8.49769531 7.4184375 -7.88476562 6.796875 C-7.30791016 6.21679688 -6.73105469 5.63671875 -6.13671875 5.0390625 C-5.60780029 4.50490723 -5.07888184 3.97075195 -4.53393555 3.42041016 C-3 2 -3 2 0 0 Z "
     fill="#DF2439"
     transform="translate(673,470)"
     id="path17" />
  <path
     d="M0 0 C0.33 0 0.66 0 1 0 C1 7.59 1 15.18 1 23 C0.67 23 0.34 23 0 23 C-0.33 17.39 -0.66 11.78 -1 6 C-1.99 6.495 -1.99 6.495 -3 7 C-1.125 2.25 -1.125 2.25 0 0 Z "
     fill="#F4CCD1"
     transform="translate(648,635)"
     id="path18" />
  <path
     d="M0 0 C0.33 0.99 0.66 1.98 1 3 C-1.97 5.475 -1.97 5.475 -5 8 C-5 5 -5 5 -2.5 2.3125 C-1.675 1.549375 -0.85 0.78625 0 0 Z "
     fill="#455D68"
     transform="translate(689,355)"
     id="path19" />
  <path
     d="M0 0 C0.99 0.33 1.98 0.66 3 1 C-0.465 3.97 -0.465 3.97 -4 7 C-4.66 6.67 -5.32 6.34 -6 6 C-4.02 4.02 -2.04 2.04 0 0 Z "
     fill="#DF2D40"
     transform="translate(603,536)"
     id="path20" />
  <path
     d="M0 0 C-1.29299694 2.88437779 -2.65941363 4.87219421 -5 7 C-5.99 6.67 -6.98 6.34 -8 6 C-7.0479279 4.99403703 -6.08812654 3.99538437 -5.125 3 C-4.59132813 2.443125 -4.05765625 1.88625 -3.5078125 1.3125 C-2 0 -2 0 0 0 Z "
     fill="#455C67"
     transform="translate(656,388)"
     id="path21" />
  <path
     d="M0 0 C0.66 0.33 1.32 0.66 2 1 C-1.465 3.97 -1.465 3.97 -5 7 C-5.66 6.67 -6.32 6.34 -7 6 C-4.69 4.02 -2.38 2.04 0 0 Z "
     fill="#435B65"
     transform="translate(344,526)"
     id="path22" />
  <path
     d="M0 0 C0 3 0 3 -2.5 5.6875 C-3.325 6.450625 -4.15 7.21375 -5 8 C-5 5 -5 5 -2.5 2.3125 C-1.675 1.549375 -0.85 0.78625 0 0 Z "
     fill="#4B636C"
     transform="translate(583,455)"
     id="path23" />
  <path
     d="M0 0 C0.66 0.33 1.32 0.66 2 1 C0.35 2.65 -1.3 4.3 -3 6 C-3.99 5.67 -4.98 5.34 -6 5 C-4.02 3.35 -2.04 1.7 0 0 Z "
     fill="#465D68"
     transform="translate(639,403)"
     id="path24" />
  <path
     d="M0 0 C0.66 0.33 1.32 0.66 2 1 C0.35 2.65 -1.3 4.3 -3 6 C-3.99 5.67 -4.98 5.34 -6 5 C-4.02 3.35 -2.04 1.7 0 0 Z "
     fill="#445B66"
     transform="translate(710,336)"
     id="path25" />
</svg>
